{"title":"The.Cottage.2012.720p.WEB-DL.DD5.1.H264-RARBG","uid":11432160,"size":2767918495,"categoryP":"video","categoryS":"hd___movies","magnet":"?xt=urn:btih:81dc3dc7102aeb4cfba0014e236fe26bd3f13b2c&amp;dn=The.Cottage.2012.720p.WEB-DL.DD5.1.H264-RARBG&amp;tr=udp%3A%2F%2Ftracker.openbittorrent.com%3A80&amp;tr=udp%3A%2F%2Fopen.demonii.com%3A1337&amp;tr=udp%3A%2F%2Ftracker.coppersurfer.tk%3A6969&amp;tr=udp%3A%2F%2Fexodus.desync.com%3A6969","seeders":0,"leechers":1,"uploader":"TvTeam","files":4,"time":1415731621,"description":" &lt;a href=&quot;http://www.torrenting.com&quot; rel=&quot;nofollow&quot; target=&quot;_NEW&quot;&gt;http://www.torrenting.com&lt;/a&gt;\n\nSign up is OPEN - for time being. Come and have fun.\n\n------------------------------------------------------------------[b]The.Cottage.2012.720p.WEB-DL.DD5.1.H264-RARBG[/b]\n\n[b]Info:[/b]\n\n[mediainfo]\n\nVideo\nID                                       : 1\nFormat                                   : AVC\nFormat/Info                              : Advanced Video Codec\nFormat profile                           : &lt;a class=&quot;__cf_email__&quot; href=&quot;/cdn-cgi/l/email-protection&quot; data-cfemail=&quot;5d15343a351d116e736c&quot;&gt;[email&amp;#160;protected]&lt;/a&gt;&lt;script cf-hash='f9e31' type=&quot;text/javascript&quot;&gt;\n/* &lt;![CDATA[ */!function(){try{var t=&quot;currentScript&quot;in document?document.currentScript:function(){for(var t=document.getElementsByTagName(&quot;script&quot;),e=t.length;e--;)if(t[e].getAttribute(&quot;cf-hash&quot;))return t[e]}();if(t&amp;&amp;t.previousSibling){var e,r,n,i,c=t.previousSibling,a=c.getAttribute(&quot;data-cfemail&quot;);if(a){for(e=&quot;&quot;,r=parseInt(a.substr(0,2),16),n=2;a.length-n;n+=2)i=parseInt(a.substr(n,2),16)^r,e+=String.fromCharCode(i);e=document.createTextNode(e),c.parentNode.replaceChild(e,c)}}}catch(u){}}();/* ]]&gt; */&lt;/script&gt;\nFormat settings, CABAC                   : No\nFormat settings, ReFrames                : 2 frames\nCodec ID                                 : V_MPEG4/ISO/AVC\nDuration                                 : 1h 27mn\nBit rate                                 : 3 752 Kbps\nWidth                                    : 1 280 pixels\nHeight                                   : 720 pixels\nDisplay aspect ratio                     : 16:9\nFrame rate mode                          : Constant\nFrame rate                               : 23.976 fps\nColor space                              : YUV\nChroma subsampling                       : 4:2:0\nBit depth                                : 8 bits\nScan type                                : Progressive\nBits/(Pixel*Frame)                       : 0.170\nStream size                              : 2.29 GiB (89%)\nTitle                                    : The.Cottage.2012.720p.WEB-DL.DD5.1.H264-RARBG\nLanguage                                 : English\nDefault                                  : No\nForced                                   : No\nColor primaries                          : BT.709\nTransfer characteristics                 : BT.709\nMatrix coefficients                      : BT.709\n\nAudio\nID                                       : 2\nFormat                                   : AC-3\nFormat/Info                              : Audio Coding 3\nMode extension                           : CM (complete main)\nFormat settings, Endianness              : Big\nCodec ID                                 : A_AC3\nDuration                                 : 1h 27mn\nBit rate mode                            : Constant\nBit rate                                 : 384 Kbps\nChannel(s)                               : 6 channels\nChannel positions                        : Front: L C R, Side: L R, LFE\nSampling rate                            : 48.0 KHz\nBit depth                                : 16 bits\nCompression mode                         : Lossy\nStream size                              : 240 MiB (9%)\nTitle                                    : The.Cottage.2012.720p.WEB-DL.DD5.1.H264-RARBG\nLanguage                                 : English\nDefault                                  : Yes\nForced                                   : No\n\nText\nID                                       : 3\nFormat                                   : UTF-8\nCodec ID                                 : S_TEXT/UTF8\nCodec ID/Info                            : UTF-8 Plain Text\nLanguage                                 : English\nDefault                                  : No\nForced                                   : No\n\nMenu\n00:00:00.000                             : en:Chapter 1\n00:10:27.000                             : en:Chapter 2\n00:20:54.000                             : en:Chapter 3\n00:30:48.000                             : en:Chapter 4\n00:41:19.000                             : en:Chapter 5\n00:50:30.000                             : en:Chapter 6\n01:00:50.000                             : en:Chapter 7\n01:10:41.000                             : en:Chapter 8\n01:20:55.000                             : en:Chapter 9\n01:23:30.000                             : en:Chapter 10\n\n\n\n[/mediainfo]\n\n[b]Notes:\nGreetz to everyone :)[/b]","torrent":{"xt":"urn:btih:81dc3dc7102aeb4cfba0014e236fe26bd3f13b2c","amp;dn":"The.Cottage.2012.720p.WEB-DL.DD5.1.H264-RARBG","amp;tr":["udp%3A%2F%2Ftracker.openbittorrent.com%3A80","udp%3A%2F%2Fopen.demonii.com%3A1337","udp%3A%2F%2Ftracker.coppersurfer.tk%3A6969","udp%3A%2F%2Fexodus.desync.com%3A6969"],"infoHash":"81dc3dc7102aeb4cfba0014e236fe26bd3f13b2c","infoHashBuffer":{"type":"Buffer","data":[129,220,61,199,16,42,235,76,251,160,1,78,35,111,226,107,211,241,59,44]},"announce":[],"urlList":[]}}